<?xml version="1.0" standalone="no"?>
<!DOCTYPE svg PUBLIC "-//W3C//DTD SVG 20010904//EN"
 "http://www.w3.org/TR/2001/REC-SVG-20010904/DTD/svg10.dtd">
<svg version="1.0" xmlns="http://www.w3.org/2000/svg"
 width="300.000000pt" height="300.000000pt" viewBox="0 0 300.000000 300.000000"
 preserveAspectRatio="xMidYMid meet">
<metadata>
Created by potrace 1.10, written by Peter Selinger 2001-2011
</metadata>
<g transform="translate(0.000000,300.000000) scale(0.100000,-0.100000)"
fill="#000000" stroke="none">
<path d="M1440 1883 l-53 -108 63 -120 c35 -66 67 -126 73 -132 11 -15 203
-18 211 -4 6 10 -224 471 -235 471 -3 0 -30 -48 -59 -107z m173 -128 c59 -118
107 -219 107 -223 0 -7 -190 -6 -195 1 -2 1 -30 57 -64 124 l-62 121 48 96
c26 53 50 96 53 96 3 0 54 -97 113 -215z"/>
<path d="M1180 1360 c-94 -188 -168 -345 -165 -348 3 -3 69 25 146 63 l141 70
84 173 83 173 -51 97 c-28 53 -54 101 -59 106 -4 5 -85 -145 -179 -334z m204
-25 c-41 -82 -78 -158 -84 -167 -11 -19 -274 -156 -269 -139 2 5 76 156 164
334 l160 325 51 -101 51 -101 -73 -151z"/>
<path d="M1523 1448 c-16 -21 -93 -176 -93 -187 0 -7 40 -11 113 -11 l112 0
25 -46 c23 -42 37 -53 163 -121 76 -42 140 -73 143 -70 7 7 -203 429 -219 439
-21 13 -233 10 -244 -4z m352 -219 l106 -210 -93 51 c-51 28 -111 60 -134 72
-28 14 -48 35 -65 67 l-25 46 -113 3 c-62 1 -111 6 -109 10 2 4 22 44 46 90
l42 82 120 0 120 0 105 -211z"/>
</g>
</svg>
